<?xml version="1.0" encoding="iso-8859-1"?>
<!-- Uploaded to: SVG Repo, www.svgrepo.com, Generator: SVG Repo Mixer Tools -->
<!DOCTYPE svg PUBLIC "-//W3C//DTD SVG 1.1//EN" "http://www.w3.org/Graphics/SVG/1.1/DTD/svg11.dtd">
<svg fill="#000000" version="1.1" id="Capa_1" xmlns="http://www.w3.org/2000/svg" xmlns:xlink="http://www.w3.org/1999/xlink" 
	 width="14px" height="14px" viewBox="0 0 482.594 482.595"
	 xml:space="preserve">
<g>
	<g>
		<path d="M30.446,482.595h421.703c6.902,0,12.5-5.597,12.5-12.5V338.64c0-6.902-5.598-12.5-12.5-12.5h-48.594V136.697
			c0-3.72-1.656-7.247-4.52-9.622L249.277,2.878c-4.628-3.838-11.331-3.838-15.959,0L83.56,127.075
			c-2.864,2.375-4.521,5.902-4.521,9.623l0.019,189.44H30.446c-6.903,0-12.5,5.598-12.5,12.5v131.455
			C17.946,476.998,23.543,482.595,30.446,482.595z M241.298,28.738l137.259,113.831V326.15h-41.713V136.705
			c0-6.903-5.598-12.5-12.5-12.5H158.252c-6.903,0-12.5,5.597-12.5,12.5v189.446h-41.694l-0.019-183.582L241.298,28.738z
			 M170.752,326.127V149.205h141.092v176.922H170.752z M42.946,351.14h43.139c0.072,0.001,0.141,0.012,0.213,0.012h310
			c0.072,0,0.141-0.011,0.213-0.012h43.139v106.455H42.946V351.14z"/>
		<path d="M285.797,214.297h-32v-32.834c0-6.902-5.597-12.5-12.5-12.5s-12.5,5.598-12.5,12.5v32.834h-32
			c-6.903,0-12.5,5.598-12.5,12.5c0,6.903,5.597,12.5,12.5,12.5h32v55.5c0,6.903,5.597,12.5,12.5,12.5s12.5-5.597,12.5-12.5v-55.5
			h32c6.904,0,12.5-5.597,12.5-12.5C298.297,219.895,292.702,214.297,285.797,214.297z"/>
	</g>
</g>
</svg>